<svg xmlns="http://www.w3.org/2000/svg" xmlns:xlink="http://www.w3.org/1999/xlink" width="500" zoomAndPan="magnify" viewBox="0 0 375 374.999991" height="500" preserveAspectRatio="xMidYMid meet" version="1.0"><defs><clipPath id="8cbd147234"><path d="M 9 42 L 349 42 L 349 372 L 9 372 Z M 9 42 " clip-rule="nonzero"/></clipPath><clipPath id="f75eea6d0d"><path d="M 8.59375 49.890625 L 316.992188 2.617188 L 366.425781 325.101562 L 58.027344 372.375 Z M 8.59375 49.890625 " clip-rule="nonzero"/></clipPath><clipPath id="cddcb7a852"><path d="M 8.59375 49.890625 L 316.992188 2.617188 L 366.425781 325.101562 L 58.027344 372.375 Z M 8.59375 49.890625 " clip-rule="nonzero"/></clipPath><clipPath id="d679a13824"><path d="M 216 112 L 263.738281 112 L 263.738281 192 L 216 192 Z M 216 112 " clip-rule="nonzero"/></clipPath><clipPath id="1e00897a56"><path d="M 162 98 L 213 98 L 213 205.792969 L 162 205.792969 Z M 162 98 " clip-rule="nonzero"/></clipPath></defs><g clip-path="url(#8cbd147234)"><g clip-path="url(#f75eea6d0d)"><g clip-path="url(#cddcb7a852)"><path fill="#68e8ff" d="M 322.972656 42.371094 L 348.457031 208.628906 C 320.621094 236.40625 276.929688 249.960938 236.074219 243.277344 C 225.128906 241.507812 213.996094 238.261719 203.242188 235.105469 C 188.886719 230.925781 174.070312 226.632812 158.6875 225.324219 C 149.285156 224.527344 140.214844 224.929688 131.507812 226.261719 C 101.90625 230.800781 76.558594 246.089844 55.851562 261.734375 L 71.375 362.992188 C 71.976562 366.933594 69.246094 370.65625 65.304688 371.257812 C 61.363281 371.863281 57.644531 369.132812 57.039062 365.191406 L 9.804688 57.039062 C 9.199219 53.097656 11.929688 49.378906 15.875 48.773438 C 19.816406 48.171875 23.535156 50.902344 24.140625 54.84375 L 30.234375 94.617188 C 57.042969 73.308594 89.640625 52.90625 129.355469 56.246094 C 143.253906 57.414062 156.769531 61.359375 171.046875 65.511719 C 182.257812 68.78125 193.8125 72.144531 205.589844 74.082031 C 247.386719 80.914062 291.925781 68.585938 322.972656 42.371094 Z M 322.972656 42.371094 " fill-opacity="1" fill-rule="nonzero"/></g></g></g><path fill="#ffffff" d="M 151.703125 191.285156 C 149.910156 191.285156 148.113281 190.566406 146.675781 189.128906 L 114.359375 156.804688 C 111.488281 153.933594 111.488281 149.621094 114.359375 146.75 L 146.675781 114.425781 C 149.550781 111.554688 153.859375 111.554688 156.730469 114.425781 C 159.605469 117.300781 159.605469 121.609375 156.730469 124.484375 L 129.441406 151.777344 L 156.730469 179.074219 C 159.605469 181.945312 159.605469 186.257812 156.730469 189.128906 C 155.296875 190.566406 153.5 191.285156 151.703125 191.285156 Z M 151.703125 191.285156 " fill-opacity="1" fill-rule="nonzero"/><g clip-path="url(#d679a13824)"><path fill="#ffffff" d="M 223.519531 191.285156 C 221.726562 191.285156 219.929688 190.566406 218.492188 189.128906 C 215.621094 186.257812 215.621094 181.945312 218.492188 179.074219 L 245.785156 151.777344 L 218.492188 124.484375 C 215.621094 121.609375 215.621094 117.300781 218.492188 114.425781 C 221.367188 111.554688 225.675781 111.554688 228.546875 114.425781 L 260.863281 146.75 C 263.738281 149.621094 263.738281 153.933594 260.863281 156.804688 L 228.546875 189.128906 C 227.113281 190.566406 225.316406 191.285156 223.519531 191.285156 Z M 223.519531 191.285156 " fill-opacity="1" fill-rule="nonzero"/></g><g clip-path="url(#1e00897a56)"><path fill="#ffffff" d="M 169.660156 205.648438 C 168.941406 205.648438 167.863281 205.648438 167.144531 205.289062 C 163.554688 203.855469 161.757812 199.542969 163.195312 195.953125 L 199.101562 102.574219 C 200.539062 98.984375 204.847656 97.1875 208.4375 98.625 C 212.03125 100.0625 213.824219 104.371094 212.390625 107.960938 L 176.480469 201.339844 C 175.402344 203.855469 172.53125 205.648438 169.660156 205.648438 Z M 169.660156 205.648438 " fill-opacity="1" fill-rule="nonzero"/></g></svg>